<svg id="Layer_1" data-name="Layer 1" xmlns="http://www.w3.org/2000/svg" viewBox="0 0 30 30"><defs><style>.cls-1{fill:#dcddde;}</style></defs><title>Artboard 106_93</title><path class="cls-1" d="M15,15.06a8.16,8.16,0,0,0-5.92,2c-.19.16,0,.5.2.61s.4-.06.61-.2A7.94,7.94,0,0,1,15,16c2.16,0,3.43.14,5.1,1.43.2.15.39.32.61.2s.39-.45.2-.62C19,15.33,17.52,15.06,15,15.06Zm-3.64-4.47A1.38,1.38,0,1,0,10,9.21,1.38,1.38,0,0,0,11.36,10.59Zm7.3,0a1.38,1.38,0,1,0-1.38-1.38A1.38,1.38,0,0,0,18.67,10.59Zm8-8.43H3.33A2.34,2.34,0,0,0,1,4.5V20.87A2.34,2.34,0,0,0,3.33,23.2H19.71l4.62,4.63V23.2h2.34A2.34,2.34,0,0,0,29,20.87V4.5A2.34,2.34,0,0,0,26.67,2.17Zm1.17,18.7A1.17,1.17,0,0,1,26.67,22h-3.5v3l-2.63-2.64L20.19,22H3.33a1.17,1.17,0,0,1-1.17-1.17V4.5A1.17,1.17,0,0,1,3.33,3.34H26.67A1.17,1.17,0,0,1,27.83,4.5Z"/></svg>