<svg id="Layer_1" data-name="Layer 1" xmlns="http://www.w3.org/2000/svg" viewBox="0 0 64 84"><defs><style>.cls-1{fill:#355bff;}</style></defs><title>Artboard 1</title><path class="cls-1" d="M31.25,46.62l-.92,2.05h3.35l-.93-2.05Zm-.92,4.23-1.7,3.59h6.75l-1.51-3.59ZM32-.38C14.41-.38.1,12.93.1,29.29c0,14.85,25,49.23,27.84,53.1a5.14,5.14,0,0,0,8.12,0c2.85-3.87,27.84-38.25,27.84-53.1C63.9,12.93,49.59-.38,32-.38ZM37.56,61.2l-1.37-4.15H27.81L26.44,61.2C19,56,7.78,43.5,7.78,29.72,7.78,17.27,18.62,7.18,32,7.18S56.23,17.27,56.23,29.72C56.23,43.5,45.05,56,37.56,61.2Zm6.67-44.4-.16-.06H19.93A2.73,2.73,0,0,0,18,18.12a6.15,6.15,0,0,0-.29.82v15.9c.58-.32,1.14-.67,1.74-.93a1.13,1.13,0,0,0,.76-1.18c0-1.16.16-2.31.22-3.47a4,4,0,0,1,3.38-3.79,5.15,5.15,0,0,1,1-.08c4.82,0,9.64,0,14.47,0a4.1,4.1,0,0,1,4.34,3.9c.07,1.34.18,2.68.28,4a.42.42,0,0,0,.14.26l2.17,1.24a.61.61,0,0,0,.13,0V18.94c0-.13-.07-.27-.11-.4A2.53,2.53,0,0,0,44.23,16.8ZM42.61,34c-.12-1.62-.25-3.23-.35-4.85a2.85,2.85,0,0,0-2.85-2.56c-1.5,0-3,0-4.5,0H24.8a2.84,2.84,0,0,0-3.07,2.69c-.1,1.58-.22,3.15-.34,4.72a.42.42,0,0,1-.2.3l-3.49,2V44.9h1.66v2.79a2.21,2.21,0,0,0,1.85,2.22.31.31,0,0,1,.12.05h.83c.15-.05.31-.1.45-.16a2.19,2.19,0,0,0,1.49-2.08c0-.8,0-1.6,0-2.4V45H39.91v.95c0,.61,0,1.21,0,1.82a2.23,2.23,0,0,0,1.78,2.18.94.94,0,0,1,.15.06h.83l.36-.11a2.17,2.17,0,0,0,1.61-2.05c0-.94,0-1.88,0-2.9H46.3V36.27c-1.16-.65-2.33-1.3-3.48-2A.46.46,0,0,1,42.61,34ZM21.68,40.6c-1.1,0-2-.6-2-1.34s.9-1.35,2-1.34,2,.6,2,1.34S22.77,40.6,21.68,40.6Zm6.07.11H26.43V37.89h1.32Zm2,1H28.39V36.88h1.33Zm2-.75H30.36V37.63h1.32Zm2,0H32.32V37.63h1.33Zm2,.75H34.29V36.88h1.32Zm2-1H36.25V37.89h1.32ZM22.79,34.13c.05-.79.1-1.55.16-2.32l.18-2.49a1.48,1.48,0,0,1,1.6-1.42h14.4c1.11,0,1.67.49,1.74,1.52.11,1.44.22,2.87.32,4.3,0,.13,0,.26,0,.41A136.12,136.12,0,0,1,22.79,34.13Zm21.54,5.15c0,.74-.91,1.33-2,1.32s-2-.61-2-1.36.91-1.34,2-1.32S44.35,38.55,44.33,39.28Z"/></svg>